<svg width="150" height="24" viewBox="0 0 150 24" fill="none" xmlns="http://www.w3.org/2000/svg">
  <path
    d="M0 12C5.64191e-07 5.37258 5.37259 -5.64191e-07 12 0C16.8729 4.25999e-07 21.0674 2.90444 22.9467 7.07658L7.07658 22.9467C6.39555 22.64 5.7483 22.2715 5.14194 21.8485L14.9904 12H12L3.51472 20.4853C1.34315 18.3137 -2.89694e-07 15.3137 0 12Z"
    fill="currentColor"
  />
  <path d="M24 12.0041L12.0041 24C18.6283 23.9978 23.9978 18.6283 24 12.0041Z" fill="currentColor" />
  <path
    fill-rule="evenodd"
    clip-rule="evenodd"
    d="M30.4682 3.64758V20.0419H32.7605V14.96H36.1841C39.2967 14.9284 41.8315 12.5742 41.8315 9.48488C41.8315 6.05799 39.3647 3.64758 36.1968 3.64758H30.4682ZM39.6374 9.33254C39.6374 11.2533 38.0693 12.9413 36.1569 12.9513C35.5622 12.951 34.9678 12.9512 34.3735 12.9513C33.8357 12.9514 33.2981 12.9516 32.7605 12.9513V5.66961L36.1399 5.66979C38.0599 5.66979 39.6374 7.31049 39.6374 9.33254Z"
    fill="currentColor"
  />
  <path
    d="M133.855 20.0423V3.64785L135.262 3.64767C135.689 3.64758 135.977 3.64752 136.159 3.64769V20.0423H133.855Z"
    fill="currentColor"
  />
  <path
    d="M45.325 20.0423V3.65704C44.9183 3.65686 44.5606 3.65687 43.913 3.65689L43.0209 3.65691V20.0423H45.325Z"
    fill="currentColor"
  />
  <path
    fill-rule="evenodd"
    clip-rule="evenodd"
    d="M59.5203 20.0423V7.7686H57.2162V9.49667H57.1719C56.2192 8.10093 54.7127 7.43628 52.9182 7.43628C49.307 7.43628 46.4934 10.1835 46.4934 14.1048C46.4934 17.6496 49.4178 20.3524 53.0068 20.3524C54.757 20.3524 56.3079 19.5992 57.1719 18.137H57.2162V20.0423H59.5203ZM52.9847 18.2477C50.6806 18.2477 48.7974 16.2317 48.7974 13.9276C48.7974 11.5127 50.6806 9.54098 52.9847 9.54098C55.5324 9.54098 57.2605 11.5349 57.2605 13.9276C57.2605 16.2538 55.3774 18.2477 52.9847 18.2477Z"
    fill="currentColor"
  />
  <path
    d="M72.3755 20.0423V12.6869C72.3755 9.29728 70.2043 7.43628 67.2577 7.43628C65.8399 7.43628 64.577 7.90153 63.6687 9.07573H63.6244V7.7686H61.3216V20.0423H63.7795V13.3294C63.7795 11.0253 64.998 9.54098 67.0141 9.54098C69.0523 9.54098 70.0714 10.7595 70.0714 13.3516V20.0423H72.3755Z"
    fill="currentColor"
  />
  <path
    fill-rule="evenodd"
    clip-rule="evenodd"
    d="M86.0278 14.8146C86.0812 14.4315 86.0812 14.1005 86.0812 13.7504C86.0812 10.2278 83.334 7.43628 79.7228 7.43628C76.4661 7.43628 73.5417 10.1392 73.5417 14.0162C73.5417 17.2951 76.3332 20.3524 79.7893 20.3524C82.4257 20.3524 84.7298 18.713 85.6824 16.1874H83.3783C82.6694 17.4945 81.318 18.2477 79.8779 18.2477C78.0127 18.2477 76.4083 16.9654 75.8612 14.9604H86.0033C86.0124 14.9135 86.0206 14.8642 86.0278 14.8146ZM75.865 12.9515C76.1304 10.9419 77.9598 9.54098 79.7893 9.54098C81.7043 9.54098 83.4938 10.962 83.7577 12.9515H75.865Z"
    fill="currentColor"
  />
  <path
    d="M102.847 7.74484H105.411C105.02 5.73196 102.722 3.64785 99.6319 3.64785C96.3984 3.64785 93.9201 5.49668 93.9201 8.27388C93.9201 10.5161 95.5232 11.8916 98.1116 12.5918L100.015 13.1111C101.738 13.5674 103.073 14.1745 103.073 15.6063C103.073 17.1798 101.57 18.2183 99.5008 18.2183C97.8506 18.2183 96.4447 17.5705 96.0374 16.2157H93.4761C93.8967 18.6989 96.1063 20.3504 99.5166 20.3504C103.301 20.3504 105.48 18.3599 105.48 15.6299C105.48 12.7269 102.887 11.5612 100.842 11.0577L99.2681 10.6486C98.0092 10.326 96.3354 9.67428 96.3433 8.13227C96.3433 6.76334 97.5942 5.66961 99.5768 5.66961C101.273 5.66961 102.519 6.47666 102.847 7.74484Z"
    fill="currentColor"
  />
  <path
    d="M118.584 16.2156C117.563 18.8445 115.27 20.3524 112.62 20.3524C109.098 20.3524 106.328 17.5166 106.328 14.0162C106.328 10.3164 109.009 7.43628 112.598 7.43628C115.304 7.43628 117.782 9.08143 118.596 11.6045H115.999C115.306 10.3093 114.231 9.54098 112.664 9.54098C110.25 9.54098 108.632 11.3798 108.632 13.8833C108.632 16.3203 110.294 18.2477 112.62 18.2477C114.107 18.2477 115.317 17.4955 115.987 16.2156H118.584Z"
    fill="currentColor"
  />
  <path
    fill-rule="evenodd"
    clip-rule="evenodd"
    d="M132.051 7.7686V20.0423H129.747V18.137H129.703C128.839 19.5992 127.288 20.3524 125.538 20.3524C121.949 20.3524 119.024 17.6496 119.024 14.1048C119.024 10.1835 121.838 7.43628 125.449 7.43628C127.244 7.43628 128.75 8.10093 129.703 9.49667H129.747V7.7686H132.051ZM121.328 13.9276C121.328 16.2317 123.212 18.2477 125.516 18.2477C127.908 18.2477 129.792 16.2538 129.792 13.9276C129.792 11.5349 128.064 9.54098 125.516 9.54098C123.212 9.54098 121.328 11.5127 121.328 13.9276Z"
    fill="currentColor"
  />
  <path
    fill-rule="evenodd"
    clip-rule="evenodd"
    d="M149.818 14.7475C149.862 14.3926 149.862 14.08 149.862 13.7505V13.7504C149.862 13.6954 149.862 13.6405 149.86 13.5859C149.849 13.143 149.795 12.7124 149.701 12.2982C149.528 11.5361 149.221 10.8296 148.803 10.2046C147.68 8.52676 145.761 7.43628 143.504 7.43628C140.247 7.43628 137.323 10.1392 137.323 14.0162C137.323 14.4261 137.366 14.8325 137.449 15.2299C138.031 18.0117 140.546 20.3524 143.57 20.3524C146.207 20.3524 148.511 18.713 149.463 16.1874H147.159C147.071 16.3508 146.972 16.5055 146.864 16.6512C146.111 17.671 144.919 18.2477 143.659 18.2477C141.794 18.2477 140.189 16.9653 139.642 14.9604H149.784C149.788 14.9414 149.792 14.922 149.795 14.9024H149.796C149.804 14.8498 149.811 14.7982 149.818 14.7475ZM139.68 12.7429C140.039 10.8456 141.805 9.54098 143.57 9.54098C145.485 9.54098 147.275 10.962 147.539 12.9516H139.646C139.655 12.8812 139.666 12.8117 139.68 12.7429Z"
    fill="currentColor"
  />
  <path
    d="M90.1834 7.77093H92.7575V9.78121H90.1834V16.6433C90.1834 17.8479 90.767 18.1834 91.4194 18.2446C91.4651 18.2458 91.506 18.2473 91.5415 18.2492C91.9381 18.2705 92.2481 18.21 92.4379 18.1476C92.7081 18.7604 93.0741 19.3214 93.5272 19.8144C92.7284 20.295 91.7798 20.3859 91.0644 20.343C90.7189 20.3249 90.3832 20.2675 90.0673 20.1705C88.657 19.7411 88.2136 18.7283 88.0539 18.3133L88.0644 18.3129C87.9431 17.9641 87.8772 17.5702 87.8788 17.131V9.78121H86.0693L86.0692 7.77093H87.8788V3.64785H90.1834V7.77093Z"
    fill="currentColor"
  />
</svg>
